<svg width="131" height="22" viewBox="0 0 131 22" fill="none" xmlns="http://www.w3.org/2000/svg">
<path d="M116.074 21V0.636368H130.75V5.09091H121.603V8.59091H129.995V13.0455H121.603V16.5455H130.711V21H116.074Z" fill="#fff"/>
<path d="M107.918 0.636368H113.447V13.6818C113.447 15.233 113.076 16.5753 112.333 17.7088C111.597 18.8357 110.57 19.7074 109.251 20.3239C107.932 20.9337 106.4 21.2386 104.657 21.2386C102.9 21.2386 101.362 20.9337 100.043 20.3239C98.7242 19.7074 97.6967 18.8357 96.9609 17.7088C96.2318 16.5753 95.8672 15.233 95.8672 13.6818V0.636368H101.396V13.2046C101.396 13.8343 101.535 14.3977 101.813 14.8949C102.092 15.3854 102.476 15.7699 102.967 16.0483C103.464 16.3267 104.027 16.4659 104.657 16.4659C105.293 16.4659 105.857 16.3267 106.347 16.0483C106.838 15.7699 107.222 15.3854 107.501 14.8949C107.779 14.3977 107.918 13.8343 107.918 13.2046V0.636368Z" fill="#fff"/>
<path d="M79.8711 21V0.636368H85.3995V16.5455H93.6325V21H79.8711Z" fill="#fff"/>
<path d="M61.168 21V0.636368H69.9975C71.5486 0.636368 72.8512 0.845175 73.9052 1.26279C74.9658 1.6804 75.7646 2.27036 76.3015 3.03267C76.8451 3.79498 77.1168 4.69319 77.1168 5.72728C77.1168 6.47633 76.9511 7.1591 76.6197 7.77557C76.2949 8.39205 75.8375 8.9091 75.2475 9.32671C74.6576 9.73769 73.9682 10.0227 73.1793 10.1818V10.3807C74.0543 10.4138 74.8498 10.6359 75.5657 11.0469C76.2816 11.4512 76.8517 12.0114 77.2759 12.7273C77.7002 13.4366 77.9123 14.2718 77.9123 15.233C77.9123 16.3466 77.6206 17.3376 77.0373 18.206C76.4606 19.0743 75.6386 19.7571 74.5714 20.2543C73.5041 20.7514 72.2314 21 70.7532 21H61.168ZM66.6964 16.5852H69.2816C70.2096 16.5852 70.9057 16.4129 71.3697 16.0682C71.8337 15.7169 72.0657 15.1998 72.0657 14.5171C72.0657 14.0398 71.9563 13.6354 71.7376 13.304C71.5188 12.9725 71.2073 12.7206 70.8029 12.5483C70.4052 12.376 69.9246 12.2898 69.3612 12.2898H66.6964V16.5852ZM66.6964 8.86932H68.9634C69.4473 8.86932 69.8749 8.79309 70.2461 8.64063C70.6173 8.48817 70.9057 8.26942 71.1112 7.98438C71.3233 7.69271 71.4293 7.33807 71.4293 6.92046C71.4293 6.29072 71.204 5.81014 70.7532 5.4787C70.3024 5.14063 69.7324 4.9716 69.043 4.9716H66.6964V8.86932Z" fill="#fff"/>
<path d="M39.5938 21V0.636368H45.1222V16.5455H53.3551V21H39.5938Z" fill="#fff"/>
<path d="M23.5977 21V0.636368H29.1261V16.5455H37.359V21H23.5977Z" fill="#fff"/>
<path d="M6.60226 21H0.636353L7.35794 0.636368H14.9148L21.6364 21H15.6704L11.2159 6.24432H11.0568L6.60226 21ZM5.48863 12.9659H16.7045V17.1023H5.48863V12.9659Z" fill="#fff"/>
</svg>
