<svg width="17" height="17" viewBox="0 0 17 17" fill="none" xmlns="http://www.w3.org/2000/svg">
<g clip-path="url(#clip0_1565_29605)">
<path d="M0.5 0.25H4.5V4.25H0.5V0.25ZM0.5 6.25H4.5V10.25H0.5V6.25ZM4.5 12.25H0.5V16.25H4.5V12.25ZM6.5 0.25H10.5V4.25H6.5V0.25ZM10.5 6.25H6.5V10.25H10.5V6.25ZM6.5 12.25H10.5V16.25H6.5V12.25ZM16.5 0.25H12.5V4.25H16.5V0.25ZM12.5 6.25H16.5V10.25H12.5V6.25ZM16.5 12.25H12.5V16.25H16.5V12.25Z" fill="#351C0C"/>
</g>
<defs>
<clipPath id="clip0_1565_29605">
<rect width="17" height="16" fill="white" transform="translate(0 0.25)"/>
</clipPath>
</defs>
</svg>
